<svg xmlns="http://www.w3.org/2000/svg" viewBox="0 0 24 24" role="img" aria-label="GitHub">
  <path
    fill="#f0f6fc"
    d="M12 .297C5.37.297 0 5.67 0 12.297c0 5.303 3.438 9.8 8.207 11.387.6.113.82-.258.82-.578 0-.285-.011-1.04-.016-2.043-3.338.727-4.043-1.61-4.043-1.61-.546-1.386-1.335-1.757-1.335-1.757-1.09-.746.083-.73.083-.73 1.205.085 1.84 1.238 1.84 1.238 1.07 1.835 2.808 1.305 3.492.998.108-.776.418-1.305.762-1.605-2.665-.304-5.466-1.334-5.466-5.93 0-1.31.468-2.381 1.236-3.221-.124-.303-.536-1.523.117-3.176 0 0 1.008-.322 3.301 1.23a11.52 11.52 0 0 1 3.004-.404c1.018.005 2.045.138 3.004.404 2.292-1.552 3.298-1.23 3.298-1.23.655 1.653.243 2.873.12 3.176.77.84 1.235 1.911 1.235 3.221 0 4.608-2.806 5.624-5.479 5.921.43.372.814 1.103.814 2.222 0 1.606-.015 2.9-.015 3.294 0 .322.216.697.825.579C20.565 22.092 24 17.597 24 12.297 24 5.67 18.627.297 12 .297Z"
  />
</svg>
